<mxfile host="65bd71144e">
    <diagram id="ntJHjWkpwj2h2JEEfH1L" name="ページ1">
        <mxGraphModel dx="3480" dy="4029" grid="1" gridSize="10" guides="1" tooltips="1" connect="1" arrows="1" fold="1" page="1" pageScale="1" pageWidth="1600" pageHeight="900" background="#ffffff" math="0" shadow="0">
            <root>
                <mxCell id="0"/>
                <mxCell id="1" parent="0"/>
                <mxCell id="2" value="Appendix" style="text;strokeColor=none;align=center;fillColor=none;html=1;verticalAlign=middle;whiteSpace=wrap;rounded=0;fontSize=64;fontColor=#303030;fontStyle=1" parent="1" vertex="1">
                    <mxGeometry x="495" y="360" width="610" height="80" as="geometry"/>
                </mxCell>
                <mxCell id="6" value="" style="rounded=0;whiteSpace=wrap;html=1;fontSize=36;fontColor=#303030;" parent="1" vertex="1">
                    <mxGeometry y="670" width="1590" height="10" as="geometry"/>
                </mxCell>
                <mxCell id="17" value="" style="edgeStyle=segmentEdgeStyle;endArrow=classic;html=1;curved=0;rounded=0;endSize=8;startSize=8;sourcePerimeterSpacing=0;targetPerimeterSpacing=0;" parent="1" edge="1">
                    <mxGeometry width="100" relative="1" as="geometry">
                        <mxPoint x="770" y="380" as="sourcePoint"/>
                        <mxPoint x="870" y="420" as="targetPoint"/>
                        <Array as="points">
                            <mxPoint x="820" y="420"/>
                        </Array>
                    </mxGeometry>
                </mxCell>
            </root>
        </mxGraphModel>
    </diagram>
</mxfile>